{"title":"Fair.Game.2010.DVDSCR.XViD.AC3-T0XiC-iNK","uid":6132567,"size":1486787140,"categoryP":"video","categoryS":"movies","magnet":"?xt=urn:btih:a7a79364407347fba0e173a65ea5ac194bcfdc4b&amp;dn=Fair.Game.2010.DVDSCR.XViD.AC3-T0XiC-iNK&amp;tr=udp%3A%2F%2Ftracker.openbittorrent.com%3A80&amp;tr=udp%3A%2F%2Fopen.demonii.com%3A1337&amp;tr=udp%3A%2F%2Ftracker.coppersurfer.tk%3A6969&amp;tr=udp%3A%2F%2Fexodus.desync.com%3A6969","seeders":0,"leechers":0,"uploader":".BONE.","files":4,"time":1296184947,"description":"::::::::::::::Enjoy:Another:Release:From:T0XiC::::::::::::::\n\n\n\nFile:: Fair.Game.2010.DVDSCR.XViD.AC3-T0XiC-iNK\n\nVideo Source::.. cheers bro ;)\n\nAudio Source:: ....cheers bro ;)\n\nLanguage::English\n\nIMDB::http://www.imdb.com/title/tt0977855/\n\n\n\nPlame's status as a CIA agent was revealed by White House officials allegedly out to discredit her husband..\n\n\n\nSpecs::\n\n\n\nGeneral\n\n\n\nFormat : AVI\n\nFormat/Info : Audio Video Interleave\n\nFile size : 1.37 GiB\n\nDuration : 1h 47mn\n\nOverall bit rate : 1 830 Kbps\n\nWriting application : VirtualDubMod 1.5.10.2 (build 2542/release)\n\nWriting library : VirtualDub build 32661/release\n\n\n\nVideo\n\nID : 0\n\nFormat : MPEG-4 Visual\n\nFormat profile : Advanced Simple@L5\n\nFormat settings, BVOP : Yes\n\nFormat settings, QPel : No\n\nFormat settings, GMC : No warppoints\n\nFormat settings, Matrix : Default (MPEG)\n\nCodec ID : XVID\n\nCodec ID/Hint : XviD\n\nDuration : 1h 47mn\n\nBit rate : 1 372 Kbps\n\nWidth : 720 pixels\n\nHeight : 304 pixels\n\nDisplay aspect ratio : 2.35:1\n\nFrame rate : 23.976 fps\n\nColor space : YUV\n\nChroma subsampling : 4:2:0\n\nBit depth : 8 bits\n\nScan type : Progressive\n\nBits/(Pixel*Frame) : 0.262\n\nStream size : 1.03 GiB (75%)\n\nWriting library : XviD 1.2.0.dev47 (UTC 2006-11-01)\n\n\n\nAudio\n\nID : 1\n\nFormat : AC-3\n\nFormat/Info : Audio Coding 3\n\nMode extension : CM (complete main)\n\nCodec ID : 2000\n\nDuration : 1h 47mn\n\nBit rate mode : Constant\n\nBit rate : 448 Kbps\n\nChannel(s) : 6 channels\n\nChannel positions : Front: L C R, Side: L R, LFE\n\nSampling rate : 48.0 KHz\n\nBit depth : 16 bits\n\nStream size : 344 MiB (24%)\n\nAlignment : Split accross interleaves\n\nInterleave, duration : 42 ms (1.00 video frame)\n\nInterleave, preload duration : 500 ms\n\n\n\n\n\n\n\n\n\n\n\n\n\nNOTES:: As you can tell its not the best quality screener ever, but its still very watchable imo... if you can't wait, we will probably be doing a v2 sometime in the near future...\n\nmake sure you check sample, enjoy :)\n\n\n\n\n\n::Why Complain? Whats Free Is Free::\n\n\n\n::We are always looking for friends with unreleased DVD's, Screeners, R5's, Audio, Cams, Silvers,\n\n...and any other good sources you may have to offer - contact us: &lt;a class=&quot;__cf_email__&quot; href=&quot;/cdn-cgi/l/email-protection&quot; data-cfemail=&quot;0672367e6f6574636a6367756375466e73756e6b676f6a2865696b&quot;&gt;[email&amp;#160;protected]&lt;/a&gt;&lt;script cf-hash='f9e31' type=&quot;text/javascript&quot;&gt;\n/* &lt;![CDATA[ */!function(){try{var t=&quot;currentScript&quot;in document?document.currentScript:function(){for(var t=document.getElementsByTagName(&quot;script&quot;),e=t.length;e--;)if(t[e].getAttribute(&quot;cf-hash&quot;))return t[e]}();if(t&amp;&amp;t.previousSibling){var e,r,n,i,c=t.previousSibling,a=c.getAttribute(&quot;data-cfemail&quot;);if(a){for(e=&quot;&quot;,r=parseInt(a.substr(0,2),16),n=2;a.length-n;n+=2)i=parseInt(a.substr(n,2),16)^r,e+=String.fromCharCode(i);e=document.createTextNode(e),c.parentNode.replaceChild(e,c)}}}catch(u){}}();/* ]]&gt; */&lt;/script&gt;\n\n\n\n:::::::::::::::::::::::::::::::::::: Respect To :::::::::::::::::::::::::::::::::::::\n\n::IMAGiNE,FLAWL3SS,Hive-CM8,DiGiTALiNK,Tranz,Vik,OneTwo,Joey,bob,&amp; our friends on utn and PA::\n\n&quot;and to all of you who support us, Thank-You&quot;\n\n &lt;a href=&quot;\nhttp://noob.hu/2011/01/28/bscap0025.jpg&quot; rel=&quot;nofollow&quot; target=&quot;_NEW&quot;&gt;\nhttp://noob.hu/2011/01/28/bscap0025.jpg&lt;/a&gt;\n &lt;a href=&quot;\nhttp://noob.hu/2011/01/28/bscap0026.jpg&quot; rel=&quot;nofollow&quot; target=&quot;_NEW&quot;&gt;\nhttp://noob.hu/2011/01/28/bscap0026.jpg&lt;/a&gt;\n &lt;a href=&quot;\nhttp://noob.hu/2011/01/28/bscap0027.jpg&quot; rel=&quot;nofollow&quot; target=&quot;_NEW&quot;&gt;\nhttp://noob.hu/2011/01/28/bscap0027.jpg&lt;/a&gt;","torrent":{"xt":"urn:btih:a7a79364407347fba0e173a65ea5ac194bcfdc4b","amp;dn":"Fair.Game.2010.DVDSCR.XViD.AC3-T0XiC-iNK","amp;tr":["udp%3A%2F%2Ftracker.openbittorrent.com%3A80","udp%3A%2F%2Fopen.demonii.com%3A1337","udp%3A%2F%2Ftracker.coppersurfer.tk%3A6969","udp%3A%2F%2Fexodus.desync.com%3A6969"],"infoHash":"a7a79364407347fba0e173a65ea5ac194bcfdc4b","infoHashBuffer":{"type":"Buffer","data":[167,167,147,100,64,115,71,251,160,225,115,166,94,165,172,25,75,207,220,75]},"announce":[],"urlList":[]}}